<svg xmlns="http://www.w3.org/2000/svg" width="20" height="16" viewBox="0 0 20 16">
  <path id="github-alt" d="M7.754,75.029c0,.871-.454,2.3-1.529,2.3S4.7,75.9,4.7,75.029s.454-2.3,1.529-2.3S7.754,74.158,7.754,75.029ZM20,72.925a9.03,9.03,0,0,1-.729,3.958C17.692,80.075,13.35,80,10.242,80c-3.158,0-7.758.112-9.4-3.117A8.919,8.919,0,0,1,0,72.925a7.165,7.165,0,0,1,1.729-4.733,6.522,6.522,0,0,1-.321-2.033A4.149,4.149,0,0,1,2.017,64,6.51,6.51,0,0,1,6.55,65.5a15.96,15.96,0,0,1,3.7-.417,14.373,14.373,0,0,1,3.35.383A6.44,6.44,0,0,1,18.087,64a4.11,4.11,0,0,1,.608,2.158,6.431,6.431,0,0,1-.321,2.008A7.179,7.179,0,0,1,20,72.925Zm-2.679,2.1a3.148,3.148,0,0,0-3.063-3.442,17.131,17.131,0,0,0-2.333.25,12.244,12.244,0,0,1-1.879.133,12.319,12.319,0,0,1-1.879-.133,16.853,16.853,0,0,0-2.333-.25,3.148,3.148,0,0,0-3.062,3.442c0,3.658,3.35,4.221,6.267,4.221h2.008C13.975,79.25,17.321,78.692,17.321,75.029Zm-3.442-2.3c-1.075,0-1.529,1.425-1.529,2.3s.454,2.3,1.529,2.3,1.529-1.425,1.529-2.3S14.954,72.733,13.879,72.733Z" transform="translate(0 -64)" fill="#6cff6c"/>
</svg>
