<svg id="_008-instagram" data-name="008-instagram" xmlns="http://www.w3.org/2000/svg" width="20" height="20" viewBox="0 0 20 20">
  <path id="Caminho_67" data-name="Caminho 67" d="M22.167,8H13.833A5.84,5.84,0,0,0,8,13.833v8.333A5.84,5.84,0,0,0,13.833,28h8.333A5.84,5.84,0,0,0,28,22.167V13.833A5.84,5.84,0,0,0,22.167,8Zm4.167,14.167a4.171,4.171,0,0,1-4.167,4.167H13.833a4.171,4.171,0,0,1-4.167-4.167V13.833a4.171,4.171,0,0,1,4.167-4.167h8.333a4.171,4.171,0,0,1,4.167,4.167Z" transform="translate(-8 -8)" fill="#fff"/>
  <path id="Caminho_68" data-name="Caminho 68" d="M25.583,21a4.583,4.583,0,1,0,4.583,4.583A4.589,4.589,0,0,0,25.583,21Zm0,7.5A2.917,2.917,0,1,1,28.5,25.583,2.92,2.92,0,0,1,25.583,28.5Z" transform="translate(-15.583 -15.583)" fill="#fff"/>
  <path id="Caminho_69" data-name="Caminho 69" d="M43.25,16a1.25,1.25,0,1,0,1.25,1.25A1.252,1.252,0,0,0,43.25,16Z" transform="translate(-27.833 -12.667)" fill="#fff"/>
</svg>
