<svg id="_009-linkedin" data-name="009-linkedin" xmlns="http://www.w3.org/2000/svg" width="20" height="20" viewBox="0 0 20 20">
  <path id="Caminho_70" data-name="Caminho 70" d="M22.167,8H13.833A5.84,5.84,0,0,0,8,13.833v8.333A5.84,5.84,0,0,0,13.833,28h8.333A5.84,5.84,0,0,0,28,22.167V13.833A5.84,5.84,0,0,0,22.167,8Zm4.167,14.167a4.171,4.171,0,0,1-4.167,4.167H13.833a4.171,4.171,0,0,1-4.167-4.167V13.833a4.171,4.171,0,0,1,4.167-4.167h8.333a4.171,4.171,0,0,1,4.167,4.167Z" transform="translate(-8 -8)" fill="#151515"/>
  <path id="Caminho_71" data-name="Caminho 71" d="M22.833,27a.834.834,0,0,0-.833.833v6.25a.833.833,0,0,0,1.667,0v-6.25A.834.834,0,0,0,22.833,27Z" transform="translate(-16.167 -19.083)" fill="#151515"/>
  <path id="Caminho_72" data-name="Caminho 72" d="M33.333,27.833H32.5a2.49,2.49,0,0,0-.833.146v-.146a.833.833,0,1,0-1.667,0v6.25a.833.833,0,0,0,1.667,0v-3.75A.834.834,0,0,1,32.5,29.5h.833a.834.834,0,0,1,.833.833v3.75a.833.833,0,0,0,1.667,0v-3.75A2.5,2.5,0,0,0,33.333,27.833Z" transform="translate(-20.833 -19.083)" fill="#151515"/>
  <path id="Caminho_73" data-name="Caminho 73" d="M22.25,18a1.25,1.25,0,1,0,1.25,1.25A1.252,1.252,0,0,0,22.25,18Z" transform="translate(-15.583 -13.833)" fill="#151515"/>
</svg>
