<svg id="_023-whatsapp" data-name="023-whatsapp" xmlns="http://www.w3.org/2000/svg" width="20" height="20.001" viewBox="0 0 20 20.001">
  <path id="Caminho_76" data-name="Caminho 76" d="M28.384,25.2a2.087,2.087,0,0,0-2.946,0l-.99.99a13.543,13.543,0,0,1-1.178-1.178l.99-.99a2.087,2.087,0,0,0,0-2.946L22.882,19.7a1.249,1.249,0,0,0-1.976.277l-.953,1.715a1.657,1.657,0,0,0,.087,1.759l.845,1.22c.194.283.392.549.605.813A15.242,15.242,0,0,0,23.97,27.96l.013.01c.262.212.526.408.8.6l1.224.848a1.654,1.654,0,0,0,1.758.086l1.716-.953a1.25,1.25,0,0,0,.276-1.976Zm-5.3-2.356-.847.847L21.41,22.5l.685-1.232.986.986a.418.418,0,0,1,0,.59Zm3.878,5.206-1.19-.824.847-.847a.417.417,0,0,1,.59,0l.986.987Z" transform="translate(-14.842 -14.615)" fill="#6cff6c"/>
  <path id="Caminho_77" data-name="Caminho 77" d="M25.058,10.934A10,10,0,0,0,9.529,23.343L8.109,26.222c-.007.013-.012.027-.018.04A1.25,1.25,0,0,0,9.732,27.9l.04-.018,2.878-1.419A10,10,0,0,0,25.058,10.934ZM13.192,24.824a.833.833,0,0,0-.848-.066l-2.187,1.078,1.078-2.187a.833.833,0,0,0-.066-.848,8.334,8.334,0,1,1,2.023,2.023Z" transform="translate(-7.98 -8.013)" fill="#6cff6c"/>
</svg>
