<svg xmlns="http://www.w3.org/2000/svg" width="1122" height="669.958" viewBox="0 0 1122 669.958"><g transform="translate(-415.972 -378.004)" opacity="0.148"><path d="M527.551,390.049l519.184,648.67a24.591,24.591,0,0,0,19.2,9.243h188.2a7.411,7.411,0,0,0,5.762-12.045L740.716,387.247a24.593,24.593,0,0,0-19.2-9.243h-188.2A7.411,7.411,0,0,0,527.551,390.049Z" transform="translate(164.178 0)" fill="#575f61"/><path d="M660.073,378.09H851.965a24.58,24.58,0,0,1,19.161,9.193L1179.04,769.538a24.738,24.738,0,0,1,5.455,15.618l-1.1,242.04a7.381,7.381,0,0,1-13.135,4.615L654.323,390.148A7.411,7.411,0,0,1,660.073,378.09Z" transform="translate(353.476 0.128)" fill="#575f61"/><path d="M977.829,625.1l-193.971-235a7.412,7.412,0,0,1,5.787-12.013H983.616A7.4,7.4,0,0,1,991,385.5v235A7.382,7.382,0,0,1,977.829,625.1Z" transform="translate(546.97 0.128)" fill="#575f61"/><path d="M711.73,537.945,591.214,387.869a26.15,26.15,0,0,0-20.393-9.779h-147a7.847,7.847,0,0,0-7.846,7.847v156.92a7.846,7.846,0,0,0,7.846,7.846H705.611A7.846,7.846,0,0,0,711.73,537.945Z" transform="translate(0.009 0.128)" fill="#575f61"/><path d="M423.824,478.788H769.707a26.158,26.158,0,0,1,20.271,9.627L910.3,635.983a7.846,7.846,0,0,1-6.081,12.8h-480.4a7.847,7.847,0,0,1-7.846-7.846v-154.3A7.847,7.847,0,0,1,423.824,478.788Z" transform="translate(0.009 150.504)" fill="#575f61"/><path d="M423.819,748.521h676.743a7.844,7.844,0,0,0,6.126-12.746L988.74,588.339a26.153,26.153,0,0,0-20.423-9.816h-544.5a7.847,7.847,0,0,0-7.847,7.846v154.3A7.847,7.847,0,0,0,423.819,748.521Z" transform="translate(0 299.442)" fill="#575f61"/></g></svg>